<svg width="320" height="67" viewBox="0 0 320 67" fill="none" xmlns="http://www.w3.org/2000/svg">
<rect width="321" height="67" fill="#292929"/>
<rect x="107.5" y="16.5" width="107" height="32.5751" stroke="white"/>
<path d="M118.252 37.6938C117.839 37.6938 117.632 37.579 117.632 37.3495C117.632 37.1134 117.77 36.9954 118.045 36.9954C118.458 36.9954 118.75 36.9331 118.921 36.8085C119.255 36.5659 119.452 36.1495 119.511 35.5593C119.524 35.4216 119.537 35.2117 119.55 34.9297C119.57 34.6478 119.59 34.3199 119.609 33.9461C119.635 33.5657 119.658 33.1493 119.678 32.6969C119.698 32.2378 119.717 31.7689 119.737 31.2902C119.763 30.805 119.786 30.3197 119.806 29.8344C119.826 29.3492 119.842 28.8869 119.855 28.4475C119.888 27.3524 119.904 26.6605 119.904 26.372C119.904 26.0835 119.881 25.8572 119.835 25.6933C119.796 25.5293 119.737 25.3949 119.658 25.29C119.514 25.1064 119.281 24.9916 118.96 24.9457C118.396 24.867 118.114 24.7457 118.114 24.5818C118.114 24.4703 118.153 24.3818 118.232 24.3162C118.317 24.2441 118.426 24.208 118.557 24.208L120.101 24.3457L120.967 24.3063C121.124 24.3063 121.255 24.3752 121.36 24.5129C121.465 24.6441 121.583 24.8408 121.714 25.1031L126.475 34.9691C126.587 34.7133 126.734 34.3756 126.918 33.9559C127.101 33.5362 127.301 33.0706 127.518 32.5591C127.741 32.0476 127.977 31.5066 128.226 30.9361C128.475 30.3656 128.721 29.7984 128.964 29.2344C129.206 28.6705 129.439 28.1295 129.662 27.6114C129.885 27.0933 130.082 26.6343 130.252 26.2343C130.423 25.8277 130.564 25.4966 130.675 25.2408C130.787 24.9851 130.862 24.8047 130.901 24.6998C130.947 24.5883 131.033 24.4867 131.157 24.3949C131.282 24.3031 131.429 24.2572 131.6 24.2572L132.524 24.2965L133.705 24.208C134.197 24.208 134.443 24.3293 134.443 24.5719C134.443 24.69 134.334 24.7719 134.118 24.8178C133.902 24.8572 133.718 24.8933 133.567 24.926C133.416 24.9588 133.275 25.008 133.144 25.0736C132.843 25.2375 132.692 25.5097 132.692 25.89L133.193 35.5199C133.246 36.3659 133.564 36.8446 134.148 36.956C134.311 36.9823 134.472 36.9954 134.629 36.9954C134.911 36.9954 135.052 37.1134 135.052 37.3495C135.052 37.579 134.846 37.6938 134.433 37.6938C134.269 37.6938 134.128 37.6839 134.01 37.6643C133.892 37.6512 133.774 37.638 133.656 37.6249C133.302 37.5725 132.98 37.5462 132.692 37.5462L130.597 37.6938C130.17 37.6938 129.957 37.5725 129.957 37.3298C129.957 37.1265 130.111 37.0249 130.419 37.0249C130.728 37.0249 130.951 37.0019 131.088 36.956C131.233 36.9036 131.338 36.8249 131.403 36.72C131.495 36.5626 131.541 36.1921 131.541 35.6084V34.6838C131.541 34.2379 131.508 33.3329 131.442 31.969C131.377 30.605 131.331 29.6312 131.305 29.0475C131.252 27.8147 131.203 26.8802 131.157 26.2441L126.505 36.9069C126.334 37.2938 126.18 37.4872 126.042 37.4872C125.95 37.4872 125.872 37.4413 125.806 37.3495C125.747 37.2511 125.665 37.097 125.56 36.8872L120.799 27.0802C120.55 30.4181 120.426 33.4707 120.426 36.238C120.426 36.7757 120.862 37.0446 121.734 37.0446C121.97 37.0446 122.088 37.1397 122.088 37.3298C122.088 37.5725 121.875 37.6938 121.449 37.6938L119.855 37.5462C119.521 37.5462 119.206 37.5692 118.911 37.6151C118.616 37.6675 118.396 37.6938 118.252 37.6938ZM131.452 25.5654L131.462 25.5556L131.452 25.5654Z" fill="white"/>
<path d="M143.543 28.3491C143.812 28.3491 143.946 28.4311 143.946 28.595C143.946 28.7328 143.822 28.8475 143.572 28.9393C143.33 29.0246 143.143 29.1065 143.012 29.1852C142.881 29.2574 142.759 29.3623 142.648 29.5C142.418 29.782 142.176 30.2705 141.92 30.9656L140.444 34.9789C139.179 38.4282 138.264 40.5037 137.7 41.2054C137.143 41.9136 136.48 42.2677 135.713 42.2677C135.182 42.2677 134.798 42.1956 134.562 42.0513C134.169 41.8021 133.972 41.5464 133.972 41.2841C133.972 41.1005 134.038 40.9496 134.169 40.8316C134.385 40.6283 134.582 40.5267 134.759 40.5267C134.943 40.5267 135.103 40.5562 135.241 40.6152C135.379 40.6808 135.51 40.7496 135.634 40.8218C135.766 40.9005 135.884 40.9693 135.988 41.0283C136.093 41.0939 136.189 41.1267 136.274 41.1267C136.359 41.1267 136.448 41.1201 136.539 41.107C136.638 41.0939 136.743 41.048 136.854 40.9693C136.966 40.8972 137.087 40.7824 137.218 40.625C137.349 40.4677 137.493 40.248 137.651 39.966C137.998 39.3299 138.389 38.4315 138.821 37.2708C138.539 37.061 138.093 36.3036 137.484 34.9986L135.31 30.1984C135.113 29.7721 134.962 29.5 134.857 29.382C134.687 29.1656 134.457 29.0246 134.169 28.959C133.887 28.8869 133.746 28.7623 133.746 28.5852C133.746 28.5262 133.782 28.4737 133.854 28.4278C133.92 28.3754 134.018 28.3491 134.149 28.3491L135.674 28.4573C136.074 28.4573 136.375 28.4442 136.579 28.418C136.926 28.3721 137.211 28.3491 137.434 28.3491C137.88 28.3491 138.103 28.4442 138.103 28.6344C138.103 28.8311 137.841 28.9426 137.316 28.9688C136.982 28.9885 136.792 29.077 136.746 29.2344C136.733 29.2803 136.726 29.3295 136.726 29.382C136.726 29.4672 136.825 29.723 137.021 30.1492L139.421 35.5691C139.428 35.5691 139.431 35.5625 139.431 35.5494C139.431 35.5363 139.435 35.5232 139.441 35.5101L141.113 30.582C141.212 30.2869 141.294 30.0443 141.359 29.8541C141.431 29.6574 141.467 29.4934 141.467 29.3623C141.467 29.2246 141.422 29.1295 141.33 29.077C141.238 29.0246 141.061 28.9885 140.799 28.9688C140.307 28.9229 140.061 28.8082 140.061 28.6246C140.061 28.4409 140.284 28.3491 140.73 28.3491L142.402 28.4475L143.543 28.3491Z" fill="white"/>
<path d="M145.856 37.6938C145.43 37.6938 145.217 37.5725 145.217 37.3298C145.217 37.1397 145.335 37.0446 145.571 37.0446L146.053 37.0938C146.446 37.0938 146.709 36.8741 146.84 36.4347C146.958 36.0609 147.017 35.392 147.017 34.4281V25.231H146.751C145.604 25.231 144.689 25.349 144.007 25.5851C143.535 25.7556 143.213 26.0474 143.043 26.4605C142.918 26.7622 142.787 26.913 142.649 26.913C142.459 26.913 142.364 26.8015 142.364 26.5786C142.364 26.513 142.377 26.4376 142.403 26.3523C142.436 26.2671 142.472 26.1654 142.512 26.0474C142.617 25.7326 142.679 25.4048 142.699 25.0638C142.718 24.7228 142.754 24.4965 142.807 24.385C142.866 24.267 142.944 24.208 143.043 24.208C143.141 24.208 143.23 24.2178 143.308 24.2375C143.387 24.2506 143.502 24.267 143.653 24.2867C144.046 24.3391 144.541 24.3654 145.138 24.3654H151.374C151.86 24.3654 152.21 24.3391 152.427 24.2867C152.65 24.2342 152.81 24.208 152.909 24.208C153.125 24.208 153.233 24.3096 153.233 24.5129C153.233 24.6178 153.214 24.7424 153.174 24.8867C153.076 25.208 153.01 25.4867 152.978 25.7228C152.951 25.9523 152.925 26.1425 152.899 26.2933C152.873 26.4376 152.843 26.5523 152.81 26.6376C152.758 26.7819 152.679 26.854 152.574 26.854C152.469 26.854 152.401 26.8179 152.368 26.7458C152.342 26.6671 152.312 26.5196 152.279 26.3032C152.246 26.0867 152.191 25.9097 152.112 25.772C152.033 25.6343 151.928 25.5261 151.797 25.4474C151.568 25.3031 151.194 25.231 150.676 25.231H148.561V34.4281C148.561 35.4183 148.604 36.0576 148.689 36.3462C148.781 36.6282 148.889 36.8249 149.014 36.9364C149.145 37.0413 149.315 37.0938 149.525 37.0938L149.997 37.0446C150.233 37.0446 150.351 37.1397 150.351 37.3298C150.351 37.5725 150.141 37.6938 149.722 37.6938C149.505 37.6938 149.276 37.6741 149.033 37.6348C148.246 37.5102 147.571 37.4872 147.007 37.5659C146.45 37.6512 146.066 37.6938 145.856 37.6938Z" fill="white"/>
<path d="M154.16 36.4445C153.779 36.0183 153.484 35.5166 153.274 34.9396C153.071 34.3625 152.969 33.7231 152.969 33.0215C152.969 32.3132 153.091 31.664 153.333 31.0738C153.576 30.4836 153.91 29.9787 154.337 29.559C155.222 28.6869 156.314 28.2508 157.612 28.2508C158.688 28.2508 159.557 28.6049 160.219 29.3131C160.848 29.9951 161.163 30.8378 161.163 31.8411C161.163 32.169 161.117 32.3952 161.025 32.5198C160.94 32.6378 160.832 32.71 160.701 32.7362C160.57 32.7559 160.389 32.7755 160.16 32.7952C159.93 32.8083 159.652 32.8247 159.324 32.8444C158.996 32.8641 158.629 32.8837 158.222 32.9034C157.822 32.9231 157.412 32.946 156.992 32.9723C156.029 33.0313 155.255 33.0903 154.671 33.1493C154.815 34.9133 155.491 36.0576 156.697 36.5823C157.091 36.7528 157.511 36.838 157.956 36.838C158.901 36.838 159.648 36.5626 160.199 36.0117C160.435 35.7757 160.616 35.6576 160.74 35.6576C160.976 35.6576 161.094 35.7986 161.094 36.0806C161.094 36.2249 160.996 36.3986 160.799 36.6019C160.602 36.8052 160.32 37.0151 159.953 37.2315C159.304 37.6052 158.547 37.7921 157.681 37.7921C156.815 37.7921 156.107 37.6741 155.556 37.438C155.012 37.1954 154.546 36.8642 154.16 36.4445ZM154.651 32.4214C157.727 32.264 159.347 32.0968 159.511 31.9198C159.57 31.8542 159.599 31.6607 159.599 31.3394C159.599 31.0181 159.537 30.7066 159.412 30.405C159.288 30.0967 159.12 29.8344 158.911 29.618C158.478 29.1787 157.94 28.959 157.297 28.959C156.57 28.959 155.956 29.2639 155.458 29.8738C154.933 30.5099 154.665 31.3591 154.651 32.4214Z" fill="white"/>
<path d="M162.06 37.0151C161.758 36.7987 161.522 36.5626 161.352 36.3068C161.181 36.0445 161.096 35.8412 161.096 35.697C161.096 35.5461 161.116 35.4347 161.155 35.3625C161.201 35.2838 161.26 35.2117 161.332 35.1461C161.502 34.9822 161.666 34.9002 161.824 34.9002C161.988 34.9002 162.112 34.9396 162.198 35.0183C162.283 35.0904 162.361 35.2379 162.434 35.4609C162.512 35.6773 162.621 35.8871 162.758 36.0904C162.903 36.2937 163.073 36.4708 163.27 36.6216C163.696 36.9429 164.217 37.1036 164.834 37.1036C165.378 37.1036 165.84 36.9692 166.221 36.7003C166.621 36.4249 166.821 36.0806 166.821 35.6675C166.821 35.2478 166.64 34.8805 166.28 34.5658C165.893 34.2313 165.319 33.9133 164.558 33.6116C163.798 33.3034 163.257 33.0444 162.935 32.8346C162.614 32.6247 162.352 32.4018 162.148 32.1657C161.761 31.7132 161.568 31.1952 161.568 30.6115C161.568 29.9426 161.87 29.3852 162.473 28.9393C163.083 28.4934 163.847 28.2704 164.765 28.2704C165.558 28.2704 166.227 28.4377 166.772 28.7721C167.244 29.0672 167.48 29.3787 167.48 29.7066C167.48 29.8771 167.391 30.0246 167.214 30.1492C167.044 30.2672 166.88 30.3263 166.722 30.3263C166.572 30.3263 166.453 30.2968 166.368 30.2377C166.283 30.1722 166.155 30.0082 165.985 29.7459C165.65 29.2279 165.142 28.9688 164.46 28.9688C163.693 28.9688 163.184 29.1983 162.935 29.6574C162.863 29.7885 162.827 29.9295 162.827 30.0804C162.827 30.2312 162.857 30.3787 162.916 30.523C162.981 30.6607 163.099 30.805 163.27 30.9558C163.63 31.2574 164.293 31.6083 165.257 32.0083C167.145 32.7887 168.09 33.7887 168.09 35.0084C168.09 35.8281 167.758 36.497 167.096 37.0151C166.427 37.5331 165.568 37.7921 164.519 37.7921C163.588 37.7921 162.768 37.5331 162.06 37.0151Z" fill="white"/>
<path d="M173.6 29.2443C173.6 29.4213 173.495 29.5098 173.285 29.5098L170.491 29.4803V34.9297C170.491 35.9462 170.737 36.5495 171.229 36.7396C171.38 36.7987 171.557 36.8282 171.76 36.8282C171.963 36.8282 172.147 36.7954 172.311 36.7298C172.482 36.6577 172.632 36.5823 172.763 36.5036C172.895 36.4249 173.006 36.3527 173.098 36.2872C173.19 36.215 173.275 36.179 173.354 36.179C173.439 36.179 173.514 36.2249 173.58 36.3167C173.645 36.4085 173.678 36.5003 173.678 36.5921C173.678 36.8216 173.386 37.097 172.803 37.4184C172.357 37.6675 171.796 37.7921 171.121 37.7921C170.445 37.7921 169.917 37.5528 169.537 37.0741C169.157 36.5888 168.967 35.9199 168.967 35.0674V29.4508H168.367C167.894 29.4508 167.658 29.3295 167.658 29.0869C167.658 28.9098 167.79 28.7885 168.052 28.7229C168.314 28.6573 168.54 28.5426 168.731 28.3786C168.921 28.2081 169.075 28.018 169.193 27.8081C169.317 27.5917 169.416 27.3688 169.488 27.1393C169.56 26.9097 169.626 26.6999 169.685 26.5097C169.829 26.0769 169.993 25.8605 170.177 25.8605C170.386 25.8605 170.491 26.0474 170.491 26.4212V28.6442L173.255 28.5852C173.393 28.5852 173.501 28.7492 173.58 29.077C173.593 29.1492 173.6 29.2049 173.6 29.2443Z" fill="white"/>
<path d="M174.614 37.5462C174.28 37.5462 173.965 37.5692 173.67 37.6151C173.381 37.6675 173.067 37.6938 172.726 37.6938C172.391 37.6938 172.224 37.5856 172.224 37.3692C172.224 37.1462 172.378 37.0347 172.686 37.0347C173.008 37.0347 173.237 36.9757 173.375 36.8577C173.598 36.6544 173.818 36.3232 174.034 35.8642C174.25 35.4052 174.45 34.9756 174.634 34.5756C174.824 34.1756 175.041 33.71 175.283 33.1788C175.526 32.6411 175.791 32.0444 176.08 31.3886C176.375 30.7263 176.683 30.0246 177.005 29.2836C177.844 27.336 178.398 26.0277 178.667 25.3588C178.936 24.6834 179.083 24.3096 179.11 24.2375C179.142 24.1654 179.175 24.0998 179.208 24.0408C179.293 23.9031 179.365 23.8342 179.424 23.8342C179.483 23.8342 179.533 23.844 179.572 23.8637C179.611 23.8768 179.654 23.9063 179.7 23.9522C179.798 24.0768 179.897 24.2637 179.995 24.5129C180.093 24.7555 180.224 25.0867 180.388 25.5064C180.559 25.9261 180.752 26.4015 180.969 26.9327C181.185 27.4639 181.415 28.0344 181.657 28.6442C181.9 29.2541 182.142 29.864 182.385 30.4738C182.634 31.0771 182.874 31.664 183.103 32.2345C183.339 32.8051 183.549 33.3198 183.733 33.7789C184.297 35.1494 184.657 35.9691 184.815 36.238C184.972 36.5068 185.103 36.6937 185.208 36.7987C185.372 36.956 185.615 37.0347 185.936 37.0347C186.257 37.0347 186.418 37.1462 186.418 37.3692C186.418 37.5856 186.212 37.6938 185.798 37.6938C185.621 37.6938 185.467 37.6839 185.336 37.6643C185.211 37.6512 185.084 37.638 184.952 37.6249C184.572 37.5725 184.234 37.5462 183.939 37.5462L182.041 37.6938C181.615 37.6938 181.401 37.5725 181.401 37.3298C181.401 37.1331 181.52 37.0347 181.756 37.0347L182.346 37.1036C182.595 37.1036 182.759 37.0511 182.838 36.9462C182.916 36.8347 182.956 36.697 182.956 36.5331C182.956 36.2249 182.824 35.7462 182.562 35.0969L181.746 33.051H176.287C176.129 33.4444 175.982 33.8051 175.844 34.133C175.713 34.4609 175.591 34.7789 175.48 35.0871C175.303 35.5855 175.214 35.979 175.214 36.2675C175.214 36.5495 175.264 36.7593 175.362 36.897C175.467 37.0282 175.66 37.0938 175.942 37.0938L176.532 37.0446C176.769 37.0446 176.887 37.1397 176.887 37.3298C176.887 37.5725 176.673 37.6938 176.247 37.6938L174.614 37.5462ZM181.411 32.2149L179.07 26.3523C178.618 27.4999 177.808 29.4541 176.641 32.2149H181.411Z" fill="white"/>
<path d="M185.574 40.9988L186.4 41.0677C186.485 41.0677 186.554 41.048 186.607 41.0087C186.659 40.9693 186.702 40.8775 186.734 40.7332C186.793 40.4709 186.823 39.8939 186.823 39.002V31.4771C186.823 30.8607 186.774 30.4607 186.675 30.2771C186.577 30.0869 186.472 29.959 186.361 29.8935C186.249 29.8279 186.069 29.7754 185.82 29.7361C185.577 29.6967 185.456 29.5951 185.456 29.4311C185.456 29.2803 185.623 29.1721 185.957 29.1065C186.744 28.9426 187.285 28.7754 187.58 28.6049C187.98 28.3819 188.249 28.2704 188.387 28.2704C188.538 28.2704 188.613 28.3459 188.613 28.4967C188.613 28.5688 188.597 28.6442 188.564 28.7229C188.538 28.8016 188.508 28.8934 188.475 28.9983C188.43 29.1688 188.394 29.4934 188.367 29.9722C189.167 28.8377 190.177 28.2704 191.397 28.2704C192.636 28.2704 193.623 28.7131 194.358 29.5984C195.066 30.4574 195.42 31.5722 195.42 32.9428C195.42 34.2871 194.981 35.4281 194.102 36.3659C193.217 37.3167 192.122 37.7921 190.817 37.7921C189.872 37.7921 189.049 37.5429 188.348 37.0446V39.002C188.348 40.2414 188.4 40.9103 188.505 41.0087C188.551 41.048 188.61 41.0677 188.682 41.0677L190 40.9595C190.131 40.9595 190.236 40.9988 190.315 41.0775C190.394 41.1628 190.433 41.2513 190.433 41.3431C190.433 41.6251 190.194 41.7661 189.715 41.7661L187.639 41.6185C187.305 41.6185 186.987 41.6415 186.685 41.6874C186.39 41.7398 186.118 41.7661 185.869 41.7661C185.62 41.7661 185.446 41.7202 185.347 41.6284C185.256 41.5431 185.21 41.4513 185.21 41.3529C185.21 41.2546 185.243 41.1693 185.308 41.0972C185.374 41.0316 185.462 40.9988 185.574 40.9988ZM188.348 35.3724C188.734 36.1724 189.374 36.697 190.266 36.9462C190.548 37.0249 190.849 37.0642 191.171 37.0642C191.492 37.0642 191.813 36.9954 192.135 36.8577C192.463 36.7134 192.748 36.4937 192.99 36.1986C193.522 35.5494 193.787 34.6445 193.787 33.4838C193.787 32.1919 193.508 31.1591 192.951 30.3853C192.426 29.6508 191.767 29.2836 190.974 29.2836C190.161 29.2836 189.446 29.6377 188.83 30.3459C188.639 30.5689 188.479 30.8181 188.348 31.0935V35.3724Z" fill="white"/>
<path d="M195.471 40.9988L196.297 41.0677C196.382 41.0677 196.451 41.048 196.504 41.0087C196.556 40.9693 196.599 40.8775 196.631 40.7332C196.69 40.4709 196.72 39.8939 196.72 39.002V31.4771C196.72 30.8607 196.671 30.4607 196.572 30.2771C196.474 30.0869 196.369 29.959 196.258 29.8935C196.146 29.8279 195.966 29.7754 195.717 29.7361C195.474 29.6967 195.353 29.5951 195.353 29.4311C195.353 29.2803 195.52 29.1721 195.854 29.1065C196.641 28.9426 197.182 28.7754 197.477 28.6049C197.877 28.3819 198.146 28.2704 198.284 28.2704C198.435 28.2704 198.51 28.3459 198.51 28.4967C198.51 28.5688 198.494 28.6442 198.461 28.7229C198.435 28.8016 198.405 28.8934 198.373 28.9983C198.327 29.1688 198.291 29.4934 198.264 29.9722C199.064 28.8377 200.074 28.2704 201.294 28.2704C202.533 28.2704 203.52 28.7131 204.255 29.5984C204.963 30.4574 205.317 31.5722 205.317 32.9428C205.317 34.2871 204.878 35.4281 203.999 36.3659C203.114 37.3167 202.019 37.7921 200.714 37.7921C199.769 37.7921 198.946 37.5429 198.245 37.0446V39.002C198.245 40.2414 198.297 40.9103 198.402 41.0087C198.448 41.048 198.507 41.0677 198.579 41.0677L199.897 40.9595C200.028 40.9595 200.133 40.9988 200.212 41.0775C200.291 41.1628 200.33 41.2513 200.33 41.3431C200.33 41.6251 200.091 41.7661 199.612 41.7661L197.536 41.6185C197.202 41.6185 196.884 41.6415 196.582 41.6874C196.287 41.7398 196.015 41.7661 195.766 41.7661C195.517 41.7661 195.343 41.7202 195.245 41.6284C195.153 41.5431 195.107 41.4513 195.107 41.3529C195.107 41.2546 195.14 41.1693 195.205 41.0972C195.271 41.0316 195.359 40.9988 195.471 40.9988ZM198.245 35.3724C198.632 36.1724 199.271 36.697 200.163 36.9462C200.445 37.0249 200.746 37.0642 201.068 37.0642C201.389 37.0642 201.71 36.9954 202.032 36.8577C202.36 36.7134 202.645 36.4937 202.887 36.1986C203.419 35.5494 203.684 34.6445 203.684 33.4838C203.684 32.1919 203.406 31.1591 202.848 30.3853C202.324 29.6508 201.664 29.2836 200.871 29.2836C200.058 29.2836 199.343 29.6377 198.727 30.3459C198.536 30.5689 198.376 30.8181 198.245 31.0935V35.3724Z" fill="white"/>
</svg>
